<svg width="144" height="144" viewBox="0 0 144 144" fill="none" xmlns="http://www.w3.org/2000/svg">
<path d="M71.9997 139.62C90.6724 139.62 107.578 132.051 119.814 119.815C132.05 107.579 139.619 90.6731 139.619 71.9997C139.619 53.3269 132.05 36.4213 119.814 24.1852C107.578 11.949 90.6724 4.38081 71.9997 4.38081C53.3262 4.38081 36.4213 11.9497 24.1852 24.1852C11.949 36.4213 4.38081 53.3269 4.38081 71.9997C4.38081 90.6731 11.9497 107.578 24.1852 119.815C36.4213 132.051 53.3269 139.62 71.9997 139.62ZM122.911 122.911C109.882 135.941 91.881 144 71.9997 144C52.1184 144 34.1183 135.941 21.0885 122.911C8.05874 109.882 0 91.881 0 71.9997C0 52.1184 8.05874 34.1183 21.0885 21.0885C34.1176 8.05875 52.1184 0 71.9997 0C91.881 0 109.881 8.05875 122.911 21.0885C135.941 34.1176 143.999 52.1184 143.999 71.9997C143.999 91.881 135.941 109.882 122.911 122.911Z" fill="#AF0707"/>
<path d="M65.7171 68.5099V130.64C57.1148 129.35 53.384 129.012 44.542 124.823V59.6665L48.9633 57.5723L65.7178 68.5092L65.7171 68.5099Z" fill="#AF0707"/>
<path d="M65.7171 68.5099V130.64C57.1148 129.35 53.384 129.012 44.542 124.823V59.6665L48.9633 57.5723L65.7178 68.5092L65.7171 68.5099Z" fill="#AF0707"/>
<path d="M104.344 40.1205V69.906L96.8986 65.0195L77.119 74.0951L76.6538 27.0893L81.1026 24.9951L104.344 40.1205Z" fill="#AF0707"/>
<path d="M104.344 40.1205V69.906L96.8986 65.0195L77.119 74.0951L76.6538 27.0893L81.1026 24.9951L104.344 40.1205Z" fill="#AF0707"/>
<path d="M113.653 77.8178V113.188C105.854 120.527 101.965 122.318 92.8767 126.501L92.4775 126.684V68.9751L96.8996 66.8809L113.654 77.8178H113.653Z" fill="#AF0707"/>
<path d="M113.653 77.8178V113.188C105.854 120.527 101.965 122.318 92.8767 126.501L92.4775 126.684V68.9751L96.8996 66.8809L113.654 77.8178H113.653Z" fill="#AF0707"/>
<path d="M76.6538 75.9565L96.6657 66.8809L93.6411 71.7674L79.4468 78.5152V130.407C78.4814 130.588 77.8851 130.61 76.6545 130.407V75.9558L76.6538 75.9565Z" fill="#AF0707"/>
<path d="M76.6538 75.9565L96.6657 66.8809L93.6411 71.7674L79.4468 78.5152V130.407C78.4814 130.588 77.8851 130.61 76.6545 130.407V75.9558L76.6538 75.9565Z" fill="#AF0707"/>
<path d="M29.1833 66.6489L49.1952 57.5732L45.937 62.6934L31.5098 69.4411V115.98C30.464 115.425 29.9405 115.035 29.1826 114.118V66.6482L29.1833 66.6489Z" fill="#AF0707"/>
<path d="M29.1833 66.6489L49.1952 57.5732L45.937 62.6934L31.5098 69.4411V115.98C30.464 115.425 29.9405 115.035 29.1826 114.118V66.6482L29.1833 66.6489Z" fill="#AF0707"/>
<path d="M55.2456 36.6301L81.0743 24.9951L78.0497 29.8823L59.8992 38.7243V61.9943L55.2456 58.7369V36.6301Z" fill="#AF0707"/>
<path d="M55.2456 36.6301L81.0743 24.9951L78.0497 29.8823L59.8992 38.7243V61.9943L55.2456 58.7369V36.6301Z" fill="#AF0707"/>
</svg>
